<?xml version="1.0" encoding="UTF-8" standalone="no"?>
<svg width="156px" height="60px" viewBox="0 0 156 60" version="1.1" xmlns="http://www.w3.org/2000/svg" xmlns:xlink="http://www.w3.org/1999/xlink">
    <defs></defs>
    <g id="Page-1" stroke="none" stroke-width="1" fill="none" fill-rule="evenodd">
        <g id="wp_dashboard_msg" transform="translate(-1136.000000, -741.000000)">
            <g id="Plugin_update" transform="translate(108.000000, 716.000000)">
                <g id="Group-2-Copy">
                    <g id="vi_logo" transform="translate(1030.000000, 27.000000)">
                        <path d="M27.8222222,55.4666667 C43.1111111,55.4666667 55.4666667,43.1111111 55.4666667,27.7333333 C55.4666667,12.4444444 43.1111111,0 27.8222222,0 C12.5333333,0.0888888889 0.177777778,12.4444444 0.177777778,27.7333333 C0.177777778,43.0222222 12.5333333,55.4666667 27.8222222,55.4666667" id="Fill-1" fill="#FEF200" fill-rule="nonzero"></path>
                        <path d="M27.5555556,56 C42.7555556,56 55.1111111,43.4666667 55.1111111,28 C55.1111111,12.5333333 42.7555556,0 27.5555556,0 C12.3555556,0 0,12.5333333 0,28 C0,43.4666667 12.3555556,56 27.5555556,56 L27.5555556,56 L27.5555556,56 L27.5555556,56 L27.5555556,56 Z" id="Stroke-2" stroke="#000000" stroke-width="4"></path>
                        <path d="M19.5555556,40 L24.8888889,40 L32.2666667,21.7777778 L26.7555556,21.7777778 L24.4444444,27.5555556 C23.7333333,29.4222222 22.9333333,31.5555556 22.2222222,33.3333333 L22.2222222,33.3333333 C21.6,31.4666667 20.8888889,29.5111111 20.1777778,27.5555556 L18.0444444,21.6888889 L12.0888889,21.6888889 L19.5555556,40 L19.5555556,40 L19.5555556,40 L19.5555556,40 L19.5555556,40 Z M34.1333333,40 L39.7333333,40 L39.7333333,21.7777778 L34.1333333,21.7777778 L34.1333333,40 L34.1333333,40 L34.1333333,40 L34.1333333,40 Z" id="Fill-4" fill="#000000" fill-rule="nonzero"></path>
                        <polygon id="Fill-5" fill="#000000" fill-rule="nonzero" points="34.1333333 18.7555556 39.7333333 18.7555556 39.7333333 13.1555556 34.1333333 13.1555556"></polygon>
                        <path d="M64.8888889,40 L67.3777778,40 L67.3777778,32 L64.8888889,32 L64.8888889,40 L64.8888889,40 L64.8888889,40 L64.8888889,40 Z M69.4222222,40 L71.9111111,40 L71.9111111,34.5777778 C72.3555556,34.2222222 72.9777778,33.8666667 73.6,33.8666667 C73.9555556,33.8666667 74.2222222,33.9555556 74.4888889,34.2222222 C74.6666667,34.4888889 74.7555556,34.7555556 74.7555556,35.3777778 L74.7555556,40 L77.2444444,40 L77.2444444,35.0222222 C77.2444444,33.8666667 77.0666667,33.1555556 76.5333333,32.6222222 C76,32.0888889 75.2888889,31.8222222 74.4,31.8222222 C73.4222222,31.8222222 72.5333333,32.2666667 71.9111111,32.7111111 L71.9111111,32.7111111 L71.9111111,32 L69.4222222,32 L69.4222222,40 L69.4222222,40 L69.4222222,40 L69.4222222,40 L69.4222222,40 Z M80.5333333,39.3777778 C81.0666667,39.9111111 81.7777778,40.1777778 82.5777778,40.1777778 C83.2888889,40.1777778 84,40 84.3555556,39.7333333 L84.3555556,37.7777778 C84,37.9555556 83.5555556,38.1333333 83.2,38.1333333 C82.4888889,38.1333333 82.3111111,37.5111111 82.3111111,36.8 L82.3111111,34.1333333 L84.4444444,34.1333333 L84.4444444,32 L82.3111111,32 L82.3111111,29.5111111 L79.8222222,29.9555556 L79.8222222,32 L78.4888889,32 L78.4888889,34.0444444 L79.8222222,34.0444444 L79.8222222,36.9777778 C79.8222222,38.3111111 80.0888889,38.9333333 80.5333333,39.3777778 L80.5333333,39.3777778 L80.5333333,39.3777778 L80.5333333,39.3777778 L80.5333333,39.3777778 Z M93.3333333,36.6222222 C93.3333333,36.4444444 93.4222222,36.0888889 93.4222222,35.7333333 C93.4222222,33.0666667 91.5555556,31.7333333 89.6,31.7333333 C87.3777778,31.7333333 85.4222222,33.4222222 85.4222222,36 C85.4222222,38.4888889 87.2888889,40.1777778 89.9555556,40.1777778 C91.0222222,40.1777778 92.2666667,39.9111111 92.9777778,39.4666667 L92.9777778,37.4222222 C92.0888889,37.9555556 91.1111111,38.3111111 90.2222222,38.3111111 C89.0666667,38.3111111 88.1777778,37.7777778 87.9111111,36.7111111 L93.3333333,36.7111111 L93.3333333,36.6222222 L93.3333333,36.6222222 L93.3333333,36.6222222 L93.3333333,36.6222222 Z M89.5111111,33.6888889 C90.3111111,33.6888889 90.9333333,34.2222222 91.1111111,35.1111111 L87.9111111,35.1111111 C88,34.2222222 88.7111111,33.6888889 89.5111111,33.6888889 L89.5111111,33.6888889 L89.5111111,33.6888889 L89.5111111,33.6888889 L89.5111111,33.6888889 Z M94.9333333,40 L97.4222222,40 L97.4222222,27.5555556 L94.9333333,27.5555556 L94.9333333,40 L94.9333333,40 L94.9333333,40 L94.9333333,40 Z M99.4666667,40 L101.955556,40 L101.955556,27.5555556 L99.4666667,27.5555556 L99.4666667,40 L99.4666667,40 L99.4666667,40 L99.4666667,40 Z M104,40 L106.488889,40 L106.488889,32 L104,32 L104,40 L104,40 L104,40 L104,40 Z M109.244444,43.2 C109.955556,43.5555556 110.933333,43.8222222 112,43.8222222 C114.577778,43.8222222 116.266667,42.4 116.266667,39.9111111 L116.266667,32 L114.311111,32.3555556 C113.777778,32.0888889 113.066667,31.9111111 112.266667,31.9111111 C109.777778,31.9111111 108.088889,33.7777778 108.088889,36.0888889 C108.088889,38.4888889 109.866667,40 111.822222,40 C112.533333,40 113.244444,39.8222222 113.688889,39.4666667 L113.688889,39.4666667 L113.688889,39.9111111 C113.688889,41.0666667 112.977778,41.6888889 111.733333,41.6888889 C110.844444,41.6888889 109.955556,41.4222222 109.155556,40.8888889 L109.155556,43.2 L109.244444,43.2 L109.244444,43.2 L109.244444,43.2 L109.244444,43.2 Z M110.666667,35.9111111 C110.666667,34.8444444 111.288889,33.9555556 112.533333,33.9555556 C112.977778,33.9555556 113.422222,34.0444444 113.777778,34.2222222 L113.777778,37.6 C113.422222,37.7777778 112.977778,37.9555556 112.533333,37.9555556 C111.377778,37.9555556 110.666667,37.0666667 110.666667,35.9111111 L110.666667,35.9111111 L110.666667,35.9111111 L110.666667,35.9111111 L110.666667,35.9111111 Z M125.777778,36.6222222 C125.777778,36.4444444 125.866667,36.0888889 125.866667,35.7333333 C125.866667,33.0666667 124,31.7333333 122.044444,31.7333333 C119.822222,31.7333333 117.866667,33.4222222 117.866667,36 C117.866667,38.4888889 119.733333,40.1777778 122.4,40.1777778 C123.466667,40.1777778 124.622222,39.9111111 125.422222,39.4666667 L125.422222,37.4222222 C124.533333,37.9555556 123.555556,38.3111111 122.666667,38.3111111 C121.511111,38.3111111 120.622222,37.7777778 120.355556,36.7111111 L125.777778,36.7111111 L125.777778,36.6222222 L125.777778,36.6222222 L125.777778,36.6222222 L125.777778,36.6222222 Z M121.955556,33.6888889 C122.755556,33.6888889 123.377778,34.2222222 123.555556,35.1111111 L120.355556,35.1111111 C120.533333,34.2222222 121.244444,33.6888889 121.955556,33.6888889 L121.955556,33.6888889 L121.955556,33.6888889 L121.955556,33.6888889 L121.955556,33.6888889 Z M127.466667,40 L129.955556,40 L129.955556,34.5777778 C130.4,34.2222222 131.022222,33.8666667 131.644444,33.8666667 C132,33.8666667 132.266667,33.9555556 132.533333,34.2222222 C132.711111,34.4888889 132.8,34.7555556 132.8,35.3777778 L132.8,40 L135.288889,40 L135.288889,35.0222222 C135.288889,33.8666667 135.111111,33.1555556 134.577778,32.6222222 C134.044444,32.0888889 133.333333,31.8222222 132.444444,31.8222222 C131.466667,31.8222222 130.577778,32.2666667 129.955556,32.7111111 L129.955556,32.7111111 L129.955556,32 L127.466667,32 L127.466667,40 L127.466667,40 L127.466667,40 L127.466667,40 L127.466667,40 Z M136.8,36 C136.8,38.4 138.666667,40.1777778 141.244444,40.1777778 C142.133333,40.1777778 143.111111,40 143.911111,39.5555556 L143.911111,37.3333333 C143.2,37.8666667 142.311111,38.1333333 141.6,38.1333333 C140.266667,38.1333333 139.377778,37.2444444 139.377778,36.0888889 C139.377778,34.8444444 140.266667,33.9555556 141.6,33.9555556 C142.4,33.9555556 143.111111,34.2222222 143.822222,34.6666667 L143.822222,32.3555556 C143.2,32 142.311111,31.8222222 141.422222,31.8222222 C138.844444,31.8222222 136.8,33.5111111 136.8,36 L136.8,36 L136.8,36 L136.8,36 L136.8,36 Z M153.066667,36.6222222 C153.066667,36.4444444 153.155556,36.0888889 153.155556,35.7333333 C153.155556,33.0666667 151.288889,31.7333333 149.333333,31.7333333 C147.111111,31.7333333 145.155556,33.4222222 145.155556,36 C145.155556,38.4888889 147.022222,40.1777778 149.688889,40.1777778 C150.755556,40.1777778 152,39.9111111 152.711111,39.4666667 L152.711111,37.4222222 C151.822222,37.9555556 150.844444,38.3111111 149.955556,38.3111111 C148.8,38.3111111 147.911111,37.7777778 147.644444,36.7111111 L153.066667,36.7111111 L153.066667,36.6222222 L153.066667,36.6222222 L153.066667,36.6222222 L153.066667,36.6222222 Z M149.244444,33.6888889 C150.044444,33.6888889 150.666667,34.2222222 150.844444,35.1111111 L147.555556,35.1111111 C147.822222,34.2222222 148.444444,33.6888889 149.244444,33.6888889 L149.244444,33.6888889 L149.244444,33.6888889 L149.244444,33.6888889 L149.244444,33.6888889 Z" id="Fill-6" fill="#000000" fill-rule="nonzero"></path>
                        <path d="M64.8888889,30.6666667 L67.3777778,30.6666667 L67.3777778,28.1777778 L64.8888889,28.1777778 L64.8888889,30.6666667 L64.8888889,30.6666667 L64.8888889,30.6666667 L64.8888889,30.6666667 Z M104,30.6666667 L106.488889,30.6666667 L106.488889,28.1777778 L104,28.1777778 L104,30.6666667 L104,30.6666667 L104,30.6666667 L104,30.6666667 Z" id="Fill-7" fill="#000000" fill-rule="nonzero"></path>
                        <path d="M68.1777778,25.7777778 L70.5777778,25.7777778 L73.8666667,17.7777778 L71.3777778,17.7777778 L70.4,20.3555556 C70.0444444,21.1555556 69.6888889,22.1333333 69.4222222,22.9333333 L69.4222222,22.9333333 C69.1555556,22.1333333 68.8,21.2444444 68.5333333,20.3555556 L67.4666667,17.7777778 L64.8888889,17.7777778 L68.1777778,25.7777778 L68.1777778,25.7777778 L68.1777778,25.7777778 L68.1777778,25.7777778 L68.1777778,25.7777778 Z M74.9333333,25.7777778 L77.4222222,25.7777778 L77.4222222,17.7777778 L74.9333333,17.7777778 L74.9333333,25.7777778 L74.9333333,25.7777778 L74.9333333,25.7777778 L74.9333333,25.7777778 Z M79.0222222,21.9555556 C79.0222222,24.4444444 80.8,25.9555556 82.7555556,25.9555556 C83.5555556,25.9555556 84.2666667,25.6888889 84.8,25.3333333 L84.8,25.3333333 L84.8,25.7777778 L87.2,25.7777778 L87.2,13.3333333 L84.7111111,13.3333333 L84.7111111,17.8666667 L84.7111111,17.8666667 C84.2666667,17.6888889 83.8222222,17.6 83.2,17.6 C80.8,17.6 79.0222222,19.3777778 79.0222222,21.9555556 L79.0222222,21.9555556 L79.0222222,21.9555556 L79.0222222,21.9555556 L79.0222222,21.9555556 Z M81.5111111,21.8666667 C81.5111111,20.6222222 82.2222222,19.6444444 83.5555556,19.6444444 C84.0888889,19.6444444 84.4444444,19.7333333 84.8,19.9111111 L84.8,23.4666667 C84.4444444,23.7333333 83.9111111,23.9111111 83.3777778,23.9111111 C82.1333333,23.9111111 81.5111111,23.0222222 81.5111111,21.8666667 L81.5111111,21.8666667 L81.5111111,21.8666667 L81.5111111,21.8666667 L81.5111111,21.8666667 Z M96.8,22.4 C96.8,22.2222222 96.8888889,21.8666667 96.8888889,21.5111111 C96.8888889,18.8444444 95.0222222,17.5111111 93.0666667,17.5111111 C90.8444444,17.5111111 88.8888889,19.2 88.8888889,21.7777778 C88.8888889,24.2666667 90.7555556,25.9555556 93.4222222,25.9555556 C94.4888889,25.9555556 95.7333333,25.6888889 96.4444444,25.2444444 L96.4444444,23.2 C95.5555556,23.7333333 94.5777778,24.0888889 93.6888889,24.0888889 C92.5333333,24.0888889 91.6444444,23.5555556 91.3777778,22.4888889 L96.8,22.4888889 L96.8,22.4 L96.8,22.4 L96.8,22.4 L96.8,22.4 Z M92.9777778,19.4666667 C93.7777778,19.4666667 94.4,20 94.5777778,20.8888889 L91.3777778,20.8888889 C91.5555556,20 92.1777778,19.4666667 92.9777778,19.4666667 L92.9777778,19.4666667 L92.9777778,19.4666667 L92.9777778,19.4666667 L92.9777778,19.4666667 Z M100.444444,21.7777778 C100.444444,20.6222222 101.333333,19.7333333 102.4,19.7333333 C103.466667,19.7333333 104.355556,20.6222222 104.355556,21.7777778 C104.355556,22.9333333 103.466667,23.8222222 102.4,23.8222222 C101.333333,23.8222222 100.444444,22.9333333 100.444444,21.7777778 L100.444444,21.7777778 L100.444444,21.7777778 L100.444444,21.7777778 L100.444444,21.7777778 Z M97.9555556,21.7777778 C97.9555556,24.1777778 99.8222222,25.9555556 102.4,25.9555556 C104.977778,25.9555556 106.844444,24.0888889 106.844444,21.7777778 C106.844444,19.4666667 104.977778,17.6 102.4,17.6 C99.8222222,17.6 97.9555556,19.3777778 97.9555556,21.7777778 L97.9555556,21.7777778 L97.9555556,21.7777778 L97.9555556,21.7777778 L97.9555556,21.7777778 Z" id="Fill-8" fill="#000000" fill-rule="nonzero"></path>
                        <polygon id="Fill-9" fill="#000000" fill-rule="nonzero" points="74.6666667 16.2666667 77.1555556 16.2666667 77.1555556 13.7777778 74.6666667 13.7777778"></polygon>
                    </g>
                </g>
            </g>
        </g>
    </g>
</svg>